PathFileType	4	(X/Y/Z)	data/BAA/BAA01/Baseline/Walk05.trc
DataRate	CameraRate	NumFrames	NumMarkers	Units	OrigDataRate	OrigDataStartFrame	OrigNumFrames
200.0	200.0	12	15	mm	200.0	472	945
Frame#	Time	RASI			SPL6			LKNE			RHIP			LASI			RKNE			RTOE			LTOE			TAIL			LHIP			LANK			RANK			*12			*13			*14			
		X1	Y1	Z1	X2	Y2	Z2	X3	Y3	Z3	X4	Y4	Z4	X5	Y5	Z5	X6	Y6	Z6	X7	Y7	Z7	X8	Y8	Z8	X9	Y9	Z9	X10	Y10	Z10	X11	Y11	Z11	X12	Y12	Z12	X13	Y13	Z13	X14	Y14	Z14	X15	Y15	Z15	

473	2.36	-188.1270294189453	65.3013916015625	-2.959680795669556	-185.9354095458984	72.00647735595703	-25.59177589416504	-176.9157257080078	28.14796257019043	-41.09962844848633	-204.5795440673828	57.0387077331543	-6.968438148498535	-180.3489532470703	57.20698165893555	-42.05842208862305	-186.2742004394531	38.29381942749023	11.2544116973877	-206.2884826660156	25.30367469787598	8.039498329162598	-193.4673156738281	6.036398887634277	-30.47595977783203	-211.9370269775391	53.63865280151367	-27.61252212524414	-199.8005828857422	50.05685806274414	-42.14925003051758	nan	nan	nan	nan	nan	nan	-203.9103088378906	16.55716896057129	-33.06508255004883	-215.4406127929688	36.71882629394531	2.951442241668701	nan	nan	nan	
474	2.365	-187.0003356933594	65.80458068847656	-3.00877571105957	-184.7287902832031	72.15298461914062	-25.62812805175781	-175.9497222900391	28.09590148925781	-41.23838806152344	-202.8151245117188	56.43864059448242	-7.609253883361816	-179.1535491943359	57.25164031982422	-42.05997467041016	-183.9446258544922	38.81871795654297	11.22948360443115	-201.544677734375	25.01950454711914	8.999582290649414	-193.3390808105469	7.440527439117432	-31.61612319946289	-210.5085754394531	54.09803771972656	-27.50041198730469	-198.6905059814453	50.21018218994141	-41.95423126220703	nan	nan	nan	nan	nan	nan	nan	nan	nan	-212.0120697021484	34.14555358886719	4.492310523986816	nan	nan	nan	
475	2.37	-185.3304290771484	66.29286956787109	-2.947450399398804	-183.1935424804688	72.33448791503906	-25.8209400177002	-174.9781341552734	28.07193565368652	-41.36356735229492	-201.3250732421875	56.58455276489258	-7.291853904724121	-177.9786376953125	57.33066558837891	-42.09516906738281	-181.744384765625	39.17888641357422	11.44034671783447	-196.8292541503906	24.35717391967773	9.835705757141113	-192.8404541015625	7.310237884521484	-31.46331977844238	-209.2169799804688	54.33174514770508	-27.13824844360352	-197.5702819824219	50.44634628295898	-41.77465438842773	nan	nan	nan	nan	nan	nan	-203.1629791259766	17.42706108093262	-32.77253723144531	nan	nan	nan	nan	nan	nan	
476	2.375	-183.7180480957031	66.60545349121094	-2.924810409545898	-182.0289306640625	72.42754364013672	-25.73068046569824	-173.9913787841797	28.07751274108887	-41.4393310546875	-199.8311767578125	56.76838302612305	-7.00673770904541	-176.7561340332031	57.42412948608398	-42.09221649169922	-179.7344360351562	39.29324722290039	11.35564136505127	-192.22216796875	23.16787147521973	10.40792465209961	-193.0127410888672	6.495029926300049	-30.37877082824707	-208.0003356933594	54.5054931640625	-26.93840217590332	-196.4051818847656	50.56013107299805	-41.55692291259766	nan	nan	nan	nan	nan	nan	nan	nan	nan	-205.0585479736328	28.39457893371582	5.484341144561768	nan	nan	nan	
477	2.38	-182.5040283203125	66.95088958740234	-3.026740550994873	-180.4571228027344	72.73520660400391	-26.0593376159668	-172.9676513671875	28.10562133789062	-41.48542404174805	-198.5198822021484	57.6234130859375	-5.887651443481445	-175.5862426757812	57.50572967529297	-42.13209915161133	-177.6199951171875	39.59208679199219	11.37579917907715	-187.6174774169922	21.80130195617676	10.81786441802979	-193.3458557128906	5.902975559234619	-29.55027198791504	-206.4842987060547	54.81533432006836	-26.54650497436523	-195.2173919677734	50.68028259277344	-41.29463195800781	nan	nan	nan	nan	nan	nan	nan	nan	nan	nan	nan	nan	nan	nan	nan	
478	2.385	-180.7046203613281	67.70549774169922	-2.772013425827026	-179.1019592285156	72.88079071044922	-26.09958839416504	-171.9193725585938	28.1226749420166	-41.46398544311523	-196.7228851318359	57.32937622070312	-6.510063648223877	-174.4183197021484	57.58942413330078	-42.23421478271484	-175.5247955322266	39.95329666137695	11.24497890472412	-183.0239105224609	20.40667152404785	11.01967144012451	-192.6461029052734	6.772852897644043	-30.33164405822754	-205.1788940429688	55.03289794921875	-26.01301002502441	-194.0028381347656	50.87589645385742	-41.10592269897461	nan	nan	nan	nan	nan	nan	-196.7156524658203	23.3196849822998	5.952883243560791	nan	nan	nan	nan	nan	nan	
479	2.39	-179.3967132568359	68.09406280517578	-2.871521711349487	-177.6537933349609	72.97396087646484	-26.13229179382324	-170.8599548339844	28.10142517089844	-41.3635368347168	-195.1282501220703	57.70070648193359	-6.25193977355957	-173.1936645507812	57.62245559692383	-42.28507232666016	-173.5130615234375	40.33403015136719	11.15925407409668	-178.3614501953125	19.41366577148438	11.18378639221191	-192.4485015869141	6.924402236938477	-30.30101203918457	-203.9946441650391	55.57222747802734	-25.7947940826416	-192.9210052490234	50.99396514892578	-40.68205642700195	nan	nan	nan	nan	nan	nan	-193.3509979248047	21.79392433166504	4.358205795288086	nan	nan	nan	nan	nan	nan	
480	2.395	-177.8406219482422	68.52443695068359	-2.989035844802856	-176.066650390625	73.23301696777344	-26.41682624816895	-169.8183441162109	28.04958724975586	-41.25657272338867	-193.5083160400391	58.09332275390625	-6.027287006378174	-171.9637145996094	57.59104156494141	-42.28678131103516	-171.5767669677734	40.71681594848633	11.00407981872559	-173.7942504882812	18.66693115234375	11.25825881958008	-192.2537536621094	7.105997085571289	-30.30486297607422	-202.2601776123047	55.57531356811523	-25.42209434509277	-191.4823455810547	50.98136138916016	-40.56729125976562	nan	nan	nan	nan	nan	nan	-187.6940002441406	20.60718154907227	6.220746517181396	nan	nan	nan	nan	nan	nan	
481	2.4	-176.1824493408203	69.07572174072266	-2.947715282440186	-174.7025146484375	73.26102447509766	-26.36595344543457	-168.7687530517578	27.99003028869629	-41.20041656494141	-192.1441345214844	59.07615661621094	-5.052695751190186	-170.7169494628906	57.57463455200195	-42.26236724853516	-169.6642608642578	41.0963249206543	10.82890892028809	-169.3384857177734	18.07037162780762	11.37819480895996	-192.0597229003906	7.23356819152832	-30.24491882324219	-200.8535461425781	55.76815795898438	-24.97546577453613	-190.5910797119141	50.80764389038086	-39.8433952331543	nan	nan	nan	nan	nan	nan	-183.3927307128906	19.69489669799805	6.277785778045654	nan	nan	nan	nan	nan	nan	
482	2.405	-174.7332763671875	69.79962158203125	-2.943558931350708	-173.1651611328125	73.48854827880859	-26.57791137695312	-167.7397918701172	27.88056564331055	-41.07639694213867	-190.4948577880859	59.31567001342773	-4.746562957763672	-169.4704895019531	57.52697372436523	-42.20924377441406	-167.7386322021484	41.46514892578125	10.62704944610596	-165.0357055664062	17.58420944213867	11.51213073730469	-191.8612213134766	7.385245800018311	-30.22519683837891	-199.3298492431641	56.02262878417969	-24.71797943115234	-189.1673431396484	50.92598342895508	-39.59697723388672	nan	nan	nan	nan	nan	nan	nan	nan	nan	-180.5009765625	18.54639434814453	4.893754005432129	nan	nan	nan	
483	2.41	-172.8829040527344	69.91049957275391	-3.131414413452148	-171.7033843994141	73.68983459472656	-26.65704154968262	-166.7400207519531	27.76250267028809	-40.92602920532227	-188.8380432128906	59.85276794433594	-4.303393363952637	-168.2321319580078	57.53362655639648	-42.20369720458984	-165.8042449951172	41.78603744506836	10.33242607116699	-160.8387756347656	17.28734588623047	11.70475292205811	-191.6472473144531	7.544530868530273	-30.17328643798828	-198.1014556884766	56.0593147277832	-23.40235710144043	-187.8580322265625	50.91284561157227	-39.14159393310547	nan	nan	nan	nan	nan	nan	-175.264892578125	19.25042724609375	7.98612117767334	nan	nan	nan	nan	nan	nan	
484	2.415	-171.2115631103516	70.38828277587891	-3.302599668502808	-170.2979583740234	73.62372589111328	-26.52336502075195	-165.6867828369141	27.75847244262695	-40.88673782348633	-187.1302795410156	60.2802848815918	-3.965656280517578	-166.9883880615234	57.43682861328125	-42.13301467895508	-163.8049468994141	42.17712020874023	10.06139945983887	-156.7977294921875	17.1309642791748	12.0111255645752	-191.4264068603516	7.654370784759521	-30.07087516784668	-196.4534301757812	56.29091644287109	-23.12242698669434	-186.4524536132812	51.23183822631836	-39.05342102050781	nan	nan	nan	nan	nan	nan	nan	nan	nan	nan	nan	nan	nan	nan	nan	
